<svg width="1600" height="1200" viewBox="0 0 1600 1200" fill="none" xmlns="http://www.w3.org/2000/svg">
  <rect width="1600" height="1200" fill="#0B1524"/>
  <g opacity="0.55">
    <circle cx="1238" cy="191" r="280" fill="url(#paint0_radial)"/>
    <circle cx="275" cy="954" r="320" fill="url(#paint1_radial)"/>
    <circle cx="720" cy="510" r="420" fill="url(#paint2_radial)"/>
  </g>
  <g opacity="0.18" stroke="#D7E7FF">
    <path d="M0 150.5H1600"/>
    <path d="M0 300.5H1600"/>
    <path d="M0 450.5H1600"/>
    <path d="M0 600.5H1600"/>
    <path d="M0 750.5H1600"/>
    <path d="M0 900.5H1600"/>
    <path d="M0 1050.5H1600"/>
    <path d="M200 0V1200"/>
    <path d="M400 0V1200"/>
    <path d="M600 0V1200"/>
    <path d="M800 0V1200"/>
    <path d="M1000 0V1200"/>
    <path d="M1200 0V1200"/>
    <path d="M1400 0V1200"/>
  </g>
  <g opacity="0.9">
    <circle cx="1190" cy="274" r="5" fill="#7DD3FC"/>
    <circle cx="1244" cy="333" r="8" fill="#34D399"/>
    <circle cx="1094" cy="341" r="4" fill="#C4B5FD"/>
    <circle cx="965" cy="633" r="6" fill="#60A5FA"/>
    <circle cx="1002" cy="702" r="11" fill="#F59E0B"/>
    <circle cx="892" cy="742" r="4" fill="#E879F9"/>
    <circle cx="422" cy="857" r="6" fill="#7DD3FC"/>
    <circle cx="538" cy="948" r="9" fill="#34D399"/>
    <circle cx="321" cy="1004" r="4" fill="#FDE68A"/>
  </g>
  <g opacity="0.28" stroke="#9CC3FF" stroke-width="2">
    <path d="M1190 274L1244 333L1094 341"/>
    <path d="M965 633L1002 702L892 742"/>
    <path d="M422 857L538 948L321 1004"/>
  </g>
  <defs>
    <radialGradient id="paint0_radial" cx="0" cy="0" r="1" gradientUnits="userSpaceOnUse" gradientTransform="translate(1238 191) rotate(90) scale(280)">
      <stop stop-color="#1D4ED8"/>
      <stop offset="1" stop-color="#1D4ED8" stop-opacity="0"/>
    </radialGradient>
    <radialGradient id="paint1_radial" cx="0" cy="0" r="1" gradientUnits="userSpaceOnUse" gradientTransform="translate(275 954) rotate(90) scale(320)">
      <stop stop-color="#0F766E"/>
      <stop offset="1" stop-color="#0F766E" stop-opacity="0"/>
    </radialGradient>
    <radialGradient id="paint2_radial" cx="0" cy="0" r="1" gradientUnits="userSpaceOnUse" gradientTransform="translate(720 510) rotate(90) scale(420)">
      <stop stop-color="#7C3AED"/>
      <stop offset="1" stop-color="#7C3AED" stop-opacity="0"/>
    </radialGradient>
  </defs>
</svg>
